<?xml version="1.0" encoding="UTF-8"?>
<svg xmlns="http://www.w3.org/2000/svg" viewBox="0 0 400 440" width="400" height="440">
  <defs>
    <radialGradient id="bodyGrad" cx="50%" cy="40%" r="50%">
      <stop offset="0%" stop-color="#EF7B5B"/>
      <stop offset="70%" stop-color="#E45A3B"/>
      <stop offset="100%" stop-color="#C44428"/>
    </radialGradient>
    <radialGradient id="eyeGlow" cx="50%" cy="50%" r="50%">
      <stop offset="0%" stop-color="#7FFFFF"/>
      <stop offset="50%" stop-color="#00E6D2"/>
      <stop offset="100%" stop-color="#00B8A9"/>
    </radialGradient>
    <filter id="glowFilter" x="-50%" y="-50%" width="200%" height="200%">
      <feGaussianBlur in="SourceGraphic" stdDeviation="4" result="blur"/>
      <feMerge><feMergeNode in="blur"/><feMergeNode in="SourceGraphic"/></feMerge>
    </filter>
    <radialGradient id="specular" cx="38%" cy="28%" r="40%">
      <stop offset="0%" stop-color="rgba(255,255,255,0.25)"/>
      <stop offset="100%" stop-color="rgba(255,255,255,0)"/>
    </radialGradient>
    <linearGradient id="tentGrad" x1="0" y1="0" x2="0" y2="1">
      <stop offset="0%" stop-color="#E45A3B"/>
      <stop offset="100%" stop-color="#C44428"/>
    </linearGradient>
  </defs>
  <path d="M145 310 Q120 350 105 380 Q95 400 110 395 Q125 390 135 360 Q140 340 150 320" fill="url(#tentGrad)" opacity="0.95"/>
  <path d="M170 315 Q160 360 148 395 Q142 415 158 408 Q172 400 175 370 Q178 345 178 320" fill="url(#tentGrad)" opacity="0.9"/>
  <path d="M200 320 Q200 370 198 405 Q196 425 204 425 Q212 425 210 405 Q208 370 205 320" fill="url(#tentGrad)" opacity="0.95"/>
  <path d="M230 315 Q240 360 252 395 Q258 415 242 408 Q228 400 225 370 Q222 345 222 320" fill="url(#tentGrad)" opacity="0.9"/>
  <path d="M255 310 Q280 350 295 380 Q305 400 290 395 Q275 390 265 360 Q260 340 250 320" fill="url(#tentGrad)" opacity="0.95"/>
  <circle cx="115" cy="375" r="3" fill="#C44428" opacity="0.5"/>
  <circle cx="153" cy="395" r="3" fill="#C44428" opacity="0.5"/>
  <circle cx="200" cy="410" r="3" fill="#C44428" opacity="0.5"/>
  <circle cx="247" cy="395" r="3" fill="#C44428" opacity="0.5"/>
  <circle cx="285" cy="375" r="3" fill="#C44428" opacity="0.5"/>
  <ellipse cx="200" cy="220" rx="110" ry="120" fill="url(#bodyGrad)"/>
  <ellipse cx="200" cy="220" rx="110" ry="120" fill="url(#specular)"/>
  <ellipse cx="200" cy="255" rx="65" ry="50" fill="rgba(255,255,255,0.06)"/>
  <line x1="200" y1="100" x2="200" y2="68" stroke="#C44428" stroke-width="4" stroke-linecap="round"/>
  <circle cx="200" cy="62" r="7" fill="#00E6D2" filter="url(#glowFilter)"/>
  <circle cx="200" cy="62" r="4" fill="#7FFFFF"/>
  <path d="M152 175 Q200 165 248 175" fill="none" stroke="rgba(0,0,0,0.12)" stroke-width="1.5"/>
  <circle cx="155" cy="180" r="2.5" fill="rgba(0,0,0,0.1)"/>
  <circle cx="245" cy="180" r="2.5" fill="rgba(0,0,0,0.1)"/>
  <ellipse cx="168" cy="215" rx="26" ry="28" fill="rgba(0,0,0,0.3)"/>
  <ellipse cx="168" cy="215" rx="22" ry="24" fill="url(#eyeGlow)" filter="url(#glowFilter)"/>
  <ellipse cx="168" cy="215" rx="10" ry="12" fill="#005F56"/>
  <ellipse cx="160" cy="208" rx="5" ry="6" fill="rgba(255,255,255,0.5)"/>
  <ellipse cx="232" cy="215" rx="26" ry="28" fill="rgba(0,0,0,0.3)"/>
  <ellipse cx="232" cy="215" rx="22" ry="24" fill="url(#eyeGlow)" filter="url(#glowFilter)"/>
  <ellipse cx="232" cy="215" rx="10" ry="12" fill="#005F56"/>
  <ellipse cx="224" cy="208" rx="5" ry="6" fill="rgba(255,255,255,0.5)"/>
  <path d="M185 260 Q200 272 215 260" fill="none" stroke="rgba(0,0,0,0.2)" stroke-width="2.5" stroke-linecap="round"/>
</svg>