<?xml version="1.0" encoding="UTF-8"?>
<svg xmlns="http://www.w3.org/2000/svg" viewBox="0 0 512 512" width="512" height="512">
  <defs>
    <filter id="eyeGlow" x="-50%" y="-50%" width="200%" height="200%">
      <feGaussianBlur in="SourceGraphic" stdDeviation="5" result="blur"/>
      <feMerge>
        <feMergeNode in="blur"/>
        <feMergeNode in="SourceGraphic"/>
      </feMerge>
    </filter>
    <radialGradient id="bodyGrad" cx="50%" cy="35%" r="55%">
      <stop offset="0%" stop-color="#FF7A5C"/>
      <stop offset="50%" stop-color="#E8604A"/>
      <stop offset="100%" stop-color="#C44835"/>
    </radialGradient>
  </defs>
  <g fill="#B83D2E">
    <rect x="180" y="372" width="30" height="55" rx="15"/>
    <rect x="222" y="377" width="30" height="57" rx="15"/>
    <rect x="260" y="377" width="30" height="57" rx="15"/>
    <rect x="302" y="372" width="30" height="55" rx="15"/>
  </g>
  <g>
    <circle cx="115" cy="280" r="16" fill="#2A2A35"/>
    <path d="M110,270 C100,250 80,230 60,225 C50,222 45,232 50,242 C58,258 85,272 110,275 Z" fill="#E8604A" stroke="#C44835" stroke-width="1"/>
    <path d="M110,290 C100,310 80,325 60,332 C50,336 45,326 50,316 C58,300 85,288 110,285 Z" fill="#D45540" stroke="#B83D2E" stroke-width="1"/>
  </g>
  <g>
    <circle cx="397" cy="280" r="16" fill="#2A2A35"/>
    <path d="M402,270 C412,250 432,230 452,225 C462,222 467,232 462,242 C454,258 427,272 402,275 Z" fill="#E8604A" stroke="#C44835" stroke-width="1"/>
    <path d="M402,290 C412,310 432,325 452,332 C462,336 467,326 462,316 C454,300 427,288 402,285 Z" fill="#D45540" stroke="#B83D2E" stroke-width="1"/>
  </g>
  <ellipse cx="256" cy="268" rx="142" ry="150" fill="url(#bodyGrad)"/>
  <ellipse cx="206" cy="285" rx="42" ry="45" fill="#0A0A12"/>
  <ellipse cx="306" cy="285" rx="42" ry="45" fill="#0A0A12"/>
  <circle cx="206" cy="290" r="22" fill="#00CCCC" filter="url(#eyeGlow)" opacity="0.6"/>
  <circle cx="306" cy="290" r="22" fill="#00CCCC" filter="url(#eyeGlow)" opacity="0.6"/>
  <circle cx="206" cy="290" r="17" fill="#00FFFF"/>
  <circle cx="306" cy="290" r="17" fill="#00FFFF"/>
  <circle cx="206" cy="290" r="10" fill="#66FFFF"/>
  <circle cx="306" cy="290" r="10" fill="#66FFFF"/>
  <circle cx="198" cy="281" r="6" fill="#FFFFFF" opacity="0.8"/>
  <circle cx="298" cy="281" r="6" fill="#FFFFFF" opacity="0.8"/>
  <path d="M234,338 Q256,355 278,338" stroke="#A83828" stroke-width="3.5" fill="none" stroke-linecap="round"/>
</svg>